<svg xmlns="http://www.w3.org/2000/svg" viewBox="0 0 100 90"><defs><style>.a{fill:#2c2f33;}.b{fill:none;stroke:#2c2f33;stroke-miterlimit:10;stroke-width:3px;}.c{fill:#2185c5;}</style></defs><title>icon_coding</title><path class="a" d="M88,3a9,9,0,0,1,9,9V78a9,9,0,0,1-9,9H12a9,9,0,0,1-9-9V12a9,9,0,0,1,9-9H88m0-3H12A12,12,0,0,0,0,12V78A12,12,0,0,0,12,90H88a12,12,0,0,0,12-12V12A12,12,0,0,0,88,0h0Z"/><line class="b" x1="0.83" y1="19.33" x2="100" y2="19.33"/><circle class="a" cx="82.78" cy="11.17" r="2.67"/><circle class="a" cx="76.33" cy="11.17" r="2.67"/><circle class="a" cx="89.23" cy="11.17" r="2.67"/><path class="c" d="M17.24,27.74v5.95a0.91,0.91,0,0,0,.27.64L36.1,52.93a0.91,0.91,0,0,1,0,1.29h0L17.5,72.81a0.91,0.91,0,0,0-.27.64v6a0.91,0.91,0,0,0,1.55.64L44.63,54.23a0.91,0.91,0,0,0,0-1.29h0L18.79,27.1A0.91,0.91,0,0,0,17.24,27.74Z"/><rect class="c" x="39.76" y="74.46" width="43" height="5.88" rx="0.64" ry="0.64"/></svg>