<svg xmlns="http://www.w3.org/2000/svg" viewBox="0 0 100 90"><defs><style>.a{fill:#2c2f33;}.b{fill:none;stroke:#2c2f33;stroke-miterlimit:10;stroke-width:3px;}.c{fill:#2185c5;}</style></defs><title>icon_design</title><path class="a" d="M88,3a9,9,0,0,1,9,9V78a9,9,0,0,1-9,9H12a9,9,0,0,1-9-9V12a9,9,0,0,1,9-9H88m0-3H12A12,12,0,0,0,0,12V78A12,12,0,0,0,12,90H88a12,12,0,0,0,12-12V12A12,12,0,0,0,88,0h0Z"/><line class="b" x1="0.83" y1="19.33" x2="100" y2="19.33"/><circle class="a" cx="82.78" cy="11.17" r="2.67"/><circle class="a" cx="76.33" cy="11.17" r="2.67"/><circle class="a" cx="89.23" cy="11.17" r="2.67"/><path class="c" d="M11.38,23.75H88.63a3.12,3.12,0,0,1,3.12,3.12v13A3.12,3.12,0,0,1,88.63,43H11.38a3.13,3.13,0,0,1-3.12-3.12v-13A3.13,3.13,0,0,1,11.38,23.75Z"/><rect class="c" x="8.25" y="50.37" width="39.88" height="32.75" rx="3.21" ry="3.21"/><rect class="a" x="52.38" y="50.37" width="39.52" height="6.5" rx="2.32" ry="2.32"/><rect class="a" x="52.38" y="58.94" width="39.52" height="6.5" rx="2.32" ry="2.32"/><rect class="a" x="52.38" y="67.78" width="39.52" height="6.5" rx="2.32" ry="2.32"/><rect class="a" x="52.38" y="76.62" width="39.52" height="6.5" rx="2.32" ry="2.32"/></svg>