<svg xmlns="http://www.w3.org/2000/svg" viewBox="0 0 512 373.93"><defs><style>.a{fill:#fff;}</style></defs><title>icon_scroll-down</title><path class="a" d="M35.17,125A20.75,20.75,0,0,0,6,125a20.25,20.25,0,0,0,0,28.84L241.43,387a20.75,20.75,0,0,0,29.14,0L506,153.88A20.24,20.24,0,0,0,506,125a20.76,20.76,0,0,0-29.14,0L256,337.6Z" transform="translate(0 -19)"/><path class="a" d="M70.65,24a17.42,17.42,0,0,0-24.45,0,17,17,0,0,0,0,24.21L243.77,243.85a17.42,17.42,0,0,0,24.45,0L465.8,48.22a17,17,0,0,0,0-24.21,17.42,17.42,0,0,0-24.45,0L256,202.42Z" transform="translate(0 -19)"/></svg>