<?xml version="1.0" encoding="utf-8"?>
<!-- Generator: Adobe Illustrator 19.2.1, SVG Export Plug-In . SVG Version: 6.00 Build 0)  -->
<svg version="1.1" id="Layer_1" xmlns="http://www.w3.org/2000/svg" xmlns:xlink="http://www.w3.org/1999/xlink" x="0px" y="0px"
	 viewBox="0 0 295.2 295.2" style="enable-background:new 0 0 295.2 295.2;" xml:space="preserve">
<style type="text/css">
	.st0{fill:none;}
	.st1{fill:#2185C5;}
</style>
<path class="st0" d="M103.6,71.8c10.3-6,16.7-17,16.7-28.8c0-18.4-15-33.3-33.3-33.3c-18.4,0-33.3,15-33.3,33.3
	c0,11.8,6.4,22.9,16.7,28.8l2.4,1.4v12.6h9.5V56.4c-5.5-2-9.5-7.2-9.5-13.4c0-7.9,6.4-14.3,14.3-14.3c7.9,0,14.3,6.4,14.3,14.3
	c0,6.2-4,11.4-9.5,13.4v29.4h9.5V73.2L103.6,71.8z"/>
<path class="st0" d="M147.6,57.4l-5.8-12.7L129,51.1c-2.2,11.1-8.6,21.1-18.2,27.5v7.2h19v-9.4C129.8,66.2,137.7,58,147.6,57.4z"/>
<path class="st0" d="M151.9,66.7h-3c-5.3,0-9.5,4.4-9.5,9.6v9.4h21.2L151.9,66.7L151.9,66.7z"/>
<circle class="st0" cx="87" cy="42.9" r="4.8"/>
<rect x="139.4" y="85.7" class="st0" width="21.2" height="0"/>
<polygon class="st0" points="221.9,85.7 221.9,85.7 199.6,85.7 199.6,85.7 "/>
<rect x="72.7" y="85.7" class="st0" width="9.5" height="0"/>
<polygon class="st0" points="162.3,66.7 171,85.7 189.1,85.7 180.3,66.7 "/>
<polygon class="st0" points="256,30.4 232.3,85.7 245.7,85.7 266.6,35.6 "/>
<path class="st0" d="M257.4,95.2H110.8H63.2h-3.6c-1.5,9.5-1.4,20.7,0.3,31.1l0.3,1.7l-27.9,49.7l30.9,7v58.1h47.6v42.9H206v-61.8
	l2.1-1.4c31.5-21.7,50.3-57.4,50.3-95.6l0-17.4C258.4,104.8,258.1,100,257.4,95.2z M96.5,133.3c-13.1,0-23.8-9.5-23.8-23.8h9.5
	c0,9.5,6.4,14.3,14.3,14.3s14.3-4.8,14.3-14.3h9.5C120.3,123.8,109.6,133.3,96.5,133.3z"/>
<rect x="206" y="9.6" class="st0" width="9.5" height="9.5"/>
<polygon class="st0" points="158,57.1 175.9,57.1 161.7,26.4 166.1,24.2 147.2,16.1 142.2,33.8 146.4,31.7 "/>
<polygon class="st0" points="267.9,19.1 262.7,23.1 267.9,25.7 "/>
<path class="st1" d="M256,30.4l10.6,5.3l-20.9,50.1H256l21.4-51.3V0.1l-27.7,20.7l-27.8,64.9h10.4L256,30.4z M267.9,19.1v6.6
	l-5.3-2.6L267.9,19.1z"/>
<path d="M265.4,85.7H256h-10.3h-13.4h-10.4l0,0h-22.4l0,0h-10.5H171h-10.5l0,0h-21.2v0h-9.5h-19h-9.5h-9.5h-9.5v0h-9.5v0h-9.5H51.6
	l-0.7,3.9c-2.3,12-2.5,24.3-0.6,36.6l-32.5,57.9l35.9,8.2v60h47.6v42.9h114.3v-66.4c33.3-23.6,52.4-61.5,52.3-101.9l0-17.4
	c0-6.5-0.6-13.3-1.8-19.9L265.4,85.7z M208.1,222.5l-2.1,1.4v61.8h-95.2v-42.9H63.2v-58.1l-30.9-7L60.2,128l-0.3-1.7
	c-1.8-10.4-1.9-21.6-0.3-31.1h3.6h47.6h146.6c0.7,4.8,1,9.6,1,14.3l0,17.4C258.4,165.1,239.6,200.8,208.1,222.5z"/>
<path class="st1" d="M101.3,42.9c0-7.9-6.4-14.3-14.3-14.3c-7.9,0-14.3,6.4-14.3,14.3c0,6.2,4,11.4,9.5,13.4v29.4h9.5V56.4
	C97.3,54.4,101.3,49.1,101.3,42.9z M87,47.7c-2.6,0-4.8-2.1-4.8-4.8c0-2.6,2.1-4.8,4.8-4.8c2.6,0,4.8,2.1,4.8,4.8
	C91.7,45.6,89.6,47.7,87,47.7z"/>
<path class="st1" d="M72.7,73.2l-2.4-1.4c-10.3-6-16.7-17-16.7-28.8c0-18.4,15-33.3,33.3-33.3c18.4,0,33.3,15,33.3,33.3
	c0,11.8-6.4,22.9-16.7,28.8l-2.4,1.4v12.6h9.5v-7.2c9.5-6.4,16-16.4,18.2-27.5l12.9-6.4l5.8,12.7c-9.9,0.7-17.8,8.8-17.8,18.9v9.4
	h9.5v-9.4c0-5.3,4.3-9.6,9.5-9.6h3v0l8.7,19H171l-8.7-19h17.9l8.8,19h10.5l-8.8-19h5.7c10.5,0,19-8.5,19-19V28.6h9.5V0h-28.6v28.6
	h9.5v19.1c0,5.2-4.3,9.4-9.5,9.4h-10.1l-12.2-26.3l14.6-7.3L141,3.1l-11.2,39.3C129.5,19,110.4,0.1,87,0.1
	c-23.6,0-42.9,19.2-42.9,42.9c0,14.3,7.2,27.7,19,35.6v7.2h9.5V73.2z M206,19.1V9.6h9.5v9.5H206z M147.2,16.1l18.9,8.1l-4.5,2.2
	l14.2,30.7H158l-11.6-25.5l-4.3,2.2L147.2,16.1z"/>
<path d="M96.5,123.8c-7.9,0-14.3-4.8-14.3-14.3h-9.5c0,14.3,10.7,23.8,23.8,23.8c13.1,0,23.8-9.5,23.8-23.8h-9.5
	C110.8,119,104.4,123.8,96.5,123.8z"/>
</svg>
