<svg xmlns="http://www.w3.org/2000/svg" viewBox="0 0 200 112.58"><defs><style>.a{fill:#2c2f33;}.b{fill:#2185c5;}</style></defs><title>icon_team</title><path class="a" d="M157,76.35h3.3a9.79,9.79,0,0,1,9.79,9.79v15.38a2.86,2.86,0,0,1-1.31,2.41,4,4,0,0,0-1.79,3.34v14.81a4.7,4.7,0,0,0,2.65,4.24,116.54,116.54,0,0,1,21.09,13.54,3.41,3.41,0,0,1,1.22,2.65V153a4,4,0,0,0,8.08,0V142.51a11.4,11.4,0,0,0-4.2-8.89A124.2,124.2,0,0,0,175,120V109.14a11,11,0,0,0,3.1-7.63V86.14a17.89,17.89,0,0,0-17.87-17.87h-3.3a17.89,17.89,0,0,0-17.87,17.87v15.38a11,11,0,0,0,3.1,7.63v5.26a4,4,0,0,0,8.08,0v-7.1a4,4,0,0,0-1.79-3.34,2.86,2.86,0,0,1-1.31-2.41V86.18A9.84,9.84,0,0,1,157,76.35Z" transform="translate(0 -44.53)"/><path class="a" d="M4.2,133.66A11.53,11.53,0,0,0,0,142.55v10.52a4,4,0,0,0,8.08,0V142.55A3.48,3.48,0,0,1,9.3,139.9a119.05,119.05,0,0,1,21.09-13.54A4.7,4.7,0,0,0,33,122.11V107.31A4,4,0,0,0,31.25,104a2.86,2.86,0,0,1-1.31-2.41V86.18a9.79,9.79,0,0,1,9.79-9.79H43a9.79,9.79,0,0,1,9.79,9.79v15.38A2.86,2.86,0,0,1,51.52,104a4,4,0,0,0-1.79,3.34v7.42a4,4,0,0,0,8.08,0v-5.55a11,11,0,0,0,3.1-7.63V86.18A17.89,17.89,0,0,0,43,68.31h-3.3A17.89,17.89,0,0,0,21.86,86.18v15.38a11,11,0,0,0,3.1,7.63v10.89A128.76,128.76,0,0,0,4.2,133.66Z" transform="translate(0 -44.53)"/><path class="b" d="M148.56,157.11a4,4,0,0,0,4-4V139.45a13.57,13.57,0,0,0-5-10.56,160,160,0,0,0-27.33-17.79V95.76a13,13,0,0,0,4-9.38V66.47a22,22,0,0,0-21.95-21.95H98.06A22,22,0,0,0,76.12,66.47V86.38a13,13,0,0,0,4,9.38V111.1a160,160,0,0,0-27.33,17.79,13.57,13.57,0,0,0-5,10.56v13.62a4,4,0,0,0,8.08,0V139.45a5.56,5.56,0,0,1,2-4.32,154.09,154.09,0,0,1,27.53-17.66,4.86,4.86,0,0,0,2.77-4.41V93.89a4,4,0,0,0-1.79-3.34,4.93,4.93,0,0,1-2.2-4.12V66.51A13.88,13.88,0,0,1,98.1,52.65h4.28a13.88,13.88,0,0,1,13.87,13.87V86.42a5,5,0,0,1-2.2,4.12,4,4,0,0,0-1.79,3.34v19.17A5,5,0,0,0,115,117.5a154.09,154.09,0,0,1,27.53,17.66,5.56,5.56,0,0,1,2,4.32v13.62A3.89,3.89,0,0,0,148.56,157.11Z" transform="translate(0 -44.53)"/></svg>