<?xml version="1.0" encoding="utf-8"?>
<!-- Generator: Adobe Illustrator 21.1.0, SVG Export Plug-In . SVG Version: 6.00 Build 0)  -->
<svg version="1.1" id="Layer_1" xmlns="http://www.w3.org/2000/svg" xmlns:xlink="http://www.w3.org/1999/xlink" x="0px" y="0px"
	 viewBox="0 0 179.1 200" style="enable-background:new 0 0 179.1 200;" xml:space="preserve">
<title>logo</title>
<path d="M127.2,25.5l-0.1-0.2l-3.5-13.7l-0.5-0.1l-4.4,13.9L94.9,87.7c-0.8,1.5-2.4,2.4-4.1,2.3h-2.7c-1.7,0.1-3.3-0.8-4.1-2.3
	L60.2,25.5l-0.1-0.2l-4.2-13.8l-0.5,0.1l-3.8,13.8L31.4,87.5c-0.7,1.6-2.4,2.6-4.1,2.5h-1c-2.8,0-4.8-2-4.1-4.1L50,2.5
	c0.7-1.6,2.4-2.6,4.1-2.5h2.6c1.7-0.1,3.3,0.8,4.1,2.3L86.1,69l3.1,9.5h0.5l3-9.5l25.6-66.7c0.8-1.5,2.4-2.4,4.1-2.3h2.7
	c1.7-0.1,3.4,0.9,4.1,2.5L157,85.9c0.7,2.1-1.3,4.1-4.1,4.1h-1.1c-1.7,0.1-3.4-0.9-4.1-2.5L127.2,25.5z"/>
<path d="M51.9,174.4l0,0.2l3.5,13.7l0.5,0.1l4.4-13.9l23.8-62.2c0.8-1.5,2.4-2.4,4.1-2.3H91c1.7-0.1,3.3,0.8,4.1,2.3l23.8,62.1
	l0.1,0.2l4.2,13.8l0.5-0.1l3.8-13.9l20.3-62.1c0.7-1.6,2.4-2.6,4.1-2.5h1c2.8,0,4.8,2,4.1,4.1l-27.9,83.5c-0.7,1.6-2.4,2.6-4.1,2.4
	h-2.6c-1.7,0.1-3.3-0.8-4.1-2.3L93,131l-3.1-9.5h-0.5l-3,9.5l-25.6,66.7c-0.8,1.5-2.4,2.4-4.1,2.3h-2.7c-1.7,0.1-3.4-0.9-4.1-2.4
	l-27.9-83.5c-0.7-2.1,1.3-4.1,4.1-4.1h1.1c1.7-0.1,3.4,0.9,4.1,2.5L51.9,174.4z"/>
<path d="M3.1,96.5h173c1.7,0,3.1,1.4,3.1,3.1v0.9c0,1.7-1.4,3.1-3.1,3.1H3.1c-1.7,0-3.1-1.4-3.1-3.1v-0.9C0,97.9,1.4,96.5,3.1,96.5z
	"/>
</svg>
