<svg xmlns="http://www.w3.org/2000/svg" viewBox="0 0 179.09 200"><defs><style>.a{fill:#fff;}</style></defs><title>logo</title><path class="a" d="M137.65,25.55l-0.05-.17-3.51-13.7-0.48-.06-4.42,13.85-23.84,62.2A4.24,4.24,0,0,1,101.29,90H98.55a4.24,4.24,0,0,1-4.06-2.34L70.68,25.55l-0.06-.17L66.39,11.56l-0.48.06L62.14,25.47,41.82,87.54A4.18,4.18,0,0,1,37.72,90h-1c-2.76,0-4.79-2-4.1-4.07L60.44,2.45A4.19,4.19,0,0,1,64.54,0h2.62a4.23,4.23,0,0,1,4.06,2.34L96.59,69l3.05,9.46h0.48l3-9.46L128.7,2.33A4.24,4.24,0,0,1,132.75,0h2.71a4.19,4.19,0,0,1,4.1,2.45l27.86,83.49c0.69,2.06-1.33,4.07-4.1,4.07h-1.13a4.18,4.18,0,0,1-4.1-2.46Z" transform="translate(-10.46)"/><path class="a" d="M62.35,174.45l0.05,0.17,3.51,13.7,0.48,0.06,4.42-13.85,23.84-62.2A4.24,4.24,0,0,1,98.71,110h2.75a4.24,4.24,0,0,1,4.06,2.34l23.81,62.11,0.06,0.17,4.23,13.82,0.48-.06,3.77-13.85,20.31-62.07a4.18,4.18,0,0,1,4.1-2.46h1c2.76,0,4.79,2,4.1,4.07l-27.86,83.49a4.19,4.19,0,0,1-4.1,2.45h-2.62a4.23,4.23,0,0,1-4.06-2.34L103.41,131l-3.05-9.46H99.88l-3,9.46L71.3,197.67A4.24,4.24,0,0,1,67.25,200H64.54a4.19,4.19,0,0,1-4.1-2.45L32.58,114.07C31.89,112,33.91,110,36.68,110h1.13a4.18,4.18,0,0,1,4.1,2.46Z" transform="translate(-10.46)"/><rect class="a" y="96.51" width="179.09" height="6.99" rx="3.06" ry="3.06"/></svg>